<?xml version="1.0" encoding="utf-8"?>
<!-- Generator: Adobe Illustrator 16.0.0, SVG Export Plug-In . SVG Version: 6.00 Build 0)  -->
<!DOCTYPE svg PUBLIC "-//W3C//DTD SVG 1.1//EN" "http://www.w3.org/Graphics/SVG/1.1/DTD/svg11.dtd">
<svg version="1.1" id="Layer_1" xmlns="http://www.w3.org/2000/svg" xmlns:xlink="http://www.w3.org/1999/xlink" x="0px" y="0px"
	 width="100px" height="92.067px" viewBox="0 0 100 92.067" enable-background="new 0 0 100 92.067" xml:space="preserve">
<g>
	<path fill="#FF4F02" d="M43.739,90.911c-3.709,0-6.73-3.017-6.73-6.718V75.63H1.755l-0.149-1.485V54.502h35.402V39.188h10.043
		v-2.707c-1.035,0.195-2.088,0.292-3.152,0.292c-2.009,0-4.001-0.354-5.913-1.047c-4.017-1.459-7.291-4.304-9.305-8.063
		l-0.567-1.179c-0.646-1.706-0.526-4.372,3.154-7.852c1.729-1.643,4.023-3.256,6.685-4.722c-2.158-0.314-3.754-1.516-4.55-3.233
		c-1.345-2.879-0.097-6.318,2.788-7.668c0.778-0.355,1.59-0.539,2.432-0.539c2.238,0,4.298,1.305,5.243,3.325
		c0.841,1.82,0.675,3.915-0.372,5.557l0.898-0.349c3.308-1.19,6.455-1.837,8.905-1.837c3.965,0,5.575,1.66,6.226,3.056
		c3.688,8.098,0.728,17.541-6.666,22.033v4.934h10.044v15.336l0.446-0.022h34.955v21.105l-2.415,0.022H62.899v8.563
		c0,3.701-3.021,6.718-6.73,6.718H43.739z"/>
	<path fill="#FFAF02" d="M52.826,88.009h-5.746V62.178c0-1.58,1.288-2.869,2.873-2.869l0,0c1.585,0,2.873,1.289,2.873,2.869V88.009
		L52.826,88.009z"/>
	<path fill="#FFAF02" d="M30.879,25.579c-1.116-2.397,3.806-7.051,10.983-10.398c7.188-3.354,13.918-4.126,15.029-1.729
		c1.122,2.392-3.801,7.051-10.983,10.393C38.725,27.198,31.995,27.976,30.879,25.579z"/>
	<path fill="#892903" d="M63.346,55.961v7.653h-1.913V40.653H51.391v-7.251c7.25-3.915,10.313-12.848,6.862-20.425
		c-0.018-0.051-0.036-0.097-0.059-0.137c-1.546-3.308-7.863-2.415-13.271-0.475l0.967,2.701c6.209-2.232,9.414-1.637,9.707-1.014
		l0,0l0,0l0,0c0.406,0.888-2.69,4.951-10.291,8.499c-3.342,1.557-6.661,2.581-9.351,2.89c-2.553,0.292-3.64-0.189-3.777-0.476
		c-0.126-0.274,0.207-1.425,2.072-3.193c1.705-1.614,4.131-3.25,6.936-4.67l1.401,3.016l2.604-1.213l-3.549-7.594
		c1.271-1.248,1.683-3.193,0.894-4.893l0,0c-1.008-2.152-3.571-3.085-5.723-2.083c-2.152,1.001-3.091,3.571-2.083,5.723
		c0.727,1.563,2.284,2.489,3.909,2.489c0.132,0,0.27-0.011,0.407-0.022l0.921,1.979c-3.073,1.557-5.774,3.372-7.692,5.185
		c-3.279,3.108-3.279,5.242-2.695,6.49l0,0l0,0c0,0.005,0,0.012,0.006,0.012c0.017,0.04,0.034,0.074,0.052,0.114
		c1.797,3.76,4.933,6.616,8.847,8.041c1.763,0.641,3.594,0.962,5.415,0.962c1.556,0,3.113-0.235,4.618-0.705v6.043H38.474v5.734
		h2.873V43.52h17.214v40.667c0,1.315-1.07,2.393-2.392,2.393h-7.651V62.178c0-0.791,0.647-1.433,1.436-1.433
		c0.79,0,1.437,0.642,1.437,1.433V77.96h2.867V62.178c0-2.369-1.93-4.305-4.304-4.305s-4.304,1.936-4.304,4.305v24.401h-1.911
		c-1.322,0-2.393-1.077-2.393-2.393V56.049h-2.873v7.565h-1.912v-7.653H3.071v18.177h33.491v-7.656h1.912v17.705
		c0,2.896,2.358,5.259,5.265,5.259h12.43c2.908,0,5.264-2.362,5.264-5.259V66.481h1.913v7.656h33.49V55.961H63.346L63.346,55.961z
		 M37.329,8.844c-0.331-0.715-0.022-1.574,0.699-1.905c0.194-0.092,0.4-0.137,0.606-0.137c0.539,0,1.054,0.309,1.299,0.83
		c0.338,0.715,0.023,1.574-0.692,1.906C38.52,9.875,37.667,9.561,37.329,8.844z M39.469,31.65c-1.911-0.698-3.594-1.808-4.956-3.25
		c0.538,0,1.122-0.035,1.774-0.109c2.988-0.344,6.616-1.46,10.233-3.142c3.605-1.683,6.798-3.749,8.985-5.814
		c0.469-0.446,0.869-0.876,1.212-1.282c0.607,5.362-2.214,10.759-7.371,13.163C46.223,32.675,42.708,32.829,39.469,31.65z
		 M33.689,63.614h-4.785v-4.78h4.785V63.614z M18.381,66.486v4.778h-4.785v-4.778H18.381z M13.596,63.614v-4.78h4.785v4.78H13.596z
		 M21.247,66.486h4.785v4.778h-4.785V66.486z M21.247,63.614v-4.78h4.785v4.78H21.247z M10.729,58.834v4.78H5.945v-4.78H10.729z
		 M5.945,66.486h4.784v4.778H5.945V66.486z M33.689,71.265h-4.785v-4.778h4.785V71.265z M93.963,63.614h-4.785v-4.78h4.785V63.614z
		 M78.66,66.486v4.778h-4.783v-4.778H78.66z M73.877,63.614v-4.78h4.783v4.78H73.877z M81.527,66.486h4.784v4.778h-4.784V66.486z
		 M81.527,63.614v-4.78h4.784v4.78H81.527z M66.218,58.834h4.786v4.78h-4.786V58.834z M66.218,66.486h4.786v4.778h-4.786V66.486z
		 M89.178,71.265v-4.778h4.785v4.778H89.178z"/>
	<rect x="38.474" y="49.735" fill="#892903" width="2.873" height="2.873"/>
	<rect x="51.391" y="81.314" fill="#892903" width="2.867" height="2.866"/>
</g>
</svg>
